<svg xmlns="http://www.w3.org/2000/svg" viewBox="0 0 100 100">
  <!-- Background -->
  <rect width="100" height="100" fill="#FFFFFF" />
  
  <!-- Ears -->
  <polygon points="18,40 15,10 45,35" fill="#FFD700" />
  <polygon points="82,40 85,10 55,35" fill="#FFD700" />
  <polygon points="21,35 18,18 39,32" fill="#FFB6C1" /> <!-- Inner left ear -->
  <polygon points="79,35 82,18 61,32" fill="#FFB6C1" /> <!-- Inner right ear -->
  
  <!-- Oval Face -->
  <ellipse cx="50" cy="55" rx="42" ry="34" fill="#FFD700" />
  
  <!-- Eyes -->
  <circle cx="33" cy="50" r="6" fill="#000000" />
  <circle cx="67" cy="50" r="6" fill="#000000" />
  
  <!-- Nose (black) -->
  <polygon points="45,62 55,62 50,68" fill="#000000" />
  
  <!-- Mouth (simple lines) -->
  <path d="M 50 68 Q 42 75 35 70" fill="none" stroke="#000000" stroke-width="3" stroke-linecap="round"/>
  <path d="M 50 68 Q 58 75 65 70" fill="none" stroke="#000000" stroke-width="3" stroke-linecap="round"/>
  
  <!-- Whiskers (3 on each side) -->
  <!-- Left Side -->
  <line x1="5" y1="46" x2="18" y2="50" stroke="#000000" stroke-width="2" stroke-linecap="round" />
  <line x1="3" y1="56" x2="16" y2="56" stroke="#000000" stroke-width="2" stroke-linecap="round" />
  <line x1="5" y1="66" x2="18" y2="62" stroke="#000000" stroke-width="2" stroke-linecap="round" />
  
  <!-- Right Side -->
  <line x1="95" y1="46" x2="82" y2="50" stroke="#000000" stroke-width="2" stroke-linecap="round" />
  <line x1="97" y1="56" x2="84" y2="56" stroke="#000000" stroke-width="2" stroke-linecap="round" />
  <line x1="95" y1="66" x2="82" y2="62" stroke="#000000" stroke-width="2" stroke-linecap="round" />
</svg>
